<?xml version="1.0" standalone="no"?>
<!DOCTYPE svg PUBLIC "-//W3C//DTD SVG 20010904//EN"
 "http://www.w3.org/TR/2001/REC-SVG-20010904/DTD/svg10.dtd">
<svg version="1.0" xmlns="http://www.w3.org/2000/svg"
 width="225.000000pt" height="225.000000pt" viewBox="0 0 225.000000 225.000000"
 preserveAspectRatio="xMidYMid meet">
<metadata>
Created by potrace 1.10, written by Peter Selinger 2001-2011
</metadata>
<g transform="translate(0.000000,225.000000) scale(0.100000,-0.100000)"
fill="#000000" stroke="none">
<path d="M1217 2140 c-9 -11 -17 -27 -17 -35 0 -8 -5 -15 -11 -15 -6 0 -9 -6
-6 -12 2 -7 8 -12 13 -11 5 1 7 -21 6 -48 l-4 -48 -35 14 c-20 8 -37 15 -40
15 -2 0 -2 4 1 8 3 5 -9 6 -27 3 l-32 -5 33 -7 c18 -4 36 -10 40 -14 4 -4 -7
-4 -25 0 -34 7 -74 -7 -54 -19 6 -4 11 -2 11 4 0 15 42 9 47 -7 3 -9 -7 -11
-34 -9 -21 2 -46 -1 -57 -6 -12 -6 -22 -6 -28 0 -12 12 -41 4 -33 -8 3 -5 -3
-6 -14 -3 -22 5 -37 -25 -21 -41 8 -8 9 -6 5 5 -5 14 0 16 25 14 16 -1 33 2
36 7 3 5 13 3 22 -4 10 -8 13 -9 9 -1 -9 15 20 24 53 18 14 -3 40 -6 58 -7 51
-2 46 -13 -16 -33 -31 -10 -62 -22 -67 -26 -6 -4 -30 -10 -54 -13 -23 -3 -49
-10 -55 -15 -10 -8 -16 -1 -24 28 -7 21 -12 49 -12 62 -1 24 -1 24 -16 4 -9
-13 -11 -21 -4 -23 7 -3 7 -8 -1 -18 -9 -12 -9 -13 3 -9 22 9 29 -40 12 -74
-8 -14 -14 -20 -14 -13 0 19 -16 14 -47 -14 -15 -14 -21 -23 -13 -19 8 4 0 -7
-18 -24 -26 -25 -29 -31 -14 -31 10 0 24 6 32 13 11 9 11 8 0 -8 -14 -18 -13
-19 1 -8 9 7 18 10 22 7 3 -3 3 3 0 14 -3 11 -1 28 4 37 8 14 11 12 23 -10 16
-30 31 -32 53 -7 13 15 14 21 4 31 -10 11 -9 13 3 9 8 -3 26 0 40 7 35 17 113
28 105 15 -3 -5 -11 -10 -16 -10 -5 0 -23 -10 -39 -22 -22 -16 -27 -24 -18
-31 9 -5 4 -7 -13 -3 -20 4 -32 -1 -50 -21 -20 -22 -21 -25 -5 -19 16 5 17 4
6 -9 -7 -8 -16 -13 -20 -10 -4 2 -6 -6 -6 -18 1 -12 -5 -30 -13 -41 -9 -10
-16 -37 -16 -61 0 -32 -4 -42 -15 -40 -9 1 -15 13 -15 31 -1 16 -5 35 -9 43
-6 9 -5 12 2 7 6 -3 13 -2 16 3 4 5 -3 12 -14 16 -14 4 -20 15 -20 35 0 28
-15 40 -50 40 -9 0 -24 8 -31 17 -8 9 -9 14 -4 11 6 -4 19 0 30 8 10 8 13 14
7 14 -18 0 -15 27 4 34 8 3 13 10 10 15 -3 5 1 14 8 20 8 7 13 23 11 37 -1 13
0 22 3 19 3 -2 12 1 20 8 13 10 14 9 8 -1 -4 -7 -10 -24 -12 -39 -3 -15 -11
-34 -17 -43 -10 -13 -10 -13 5 -2 9 7 20 27 23 43 4 16 10 27 13 25 4 -2 7 25
7 60 0 35 -3 64 -7 64 -5 0 -8 -10 -8 -22 0 -13 -3 -33 -6 -46 -5 -18 -9 -20
-20 -11 -12 10 -12 15 1 35 9 14 11 24 5 24 -16 0 -29 -43 -18 -57 7 -9 7 -13
-2 -13 -7 0 -11 -13 -10 -32 3 -48 1 -55 -10 -38 -6 10 -10 11 -10 3 0 -7 -6
-13 -13 -13 -7 0 -21 -11 -31 -25 -15 -19 -21 -23 -28 -13 -5 9 -8 7 -8 -7 0
-15 -2 -17 -9 -6 -5 8 -11 9 -15 3 -9 -14 24 -24 39 -12 19 16 27 -3 15 -32
l-11 -23 5 23 c3 18 1 22 -11 18 -8 -3 -19 -6 -25 -6 -7 0 -6 -5 1 -14 6 -7 9
-20 6 -28 -4 -9 0 -22 7 -29 7 -8 13 -35 13 -61 -1 -27 4 -48 10 -48 5 0 3 -5
-5 -10 -8 -5 -10 -10 -5 -10 6 0 23 -16 38 -36 26 -32 34 -48 36 -79 1 -5 6
-3 11 5 5 8 7 23 4 34 -4 13 -3 16 6 11 9 -5 11 -4 6 4 -4 6 -12 9 -17 6 -8
-5 -9 -2 -9 20 0 3 -10 26 -24 53 -25 49 -42 124 -32 141 4 5 15 5 30 -2 20
-10 22 -15 15 -35 -7 -17 -6 -21 3 -16 8 5 9 2 5 -9 -4 -11 1 -20 16 -28 18
-9 20 -9 10 2 -15 16 -17 49 -3 49 11 0 14 -17 11 -73 -1 -23 8 -60 23 -94 15
-30 26 -61 26 -68 0 -8 12 -23 26 -34 15 -12 23 -25 18 -32 -4 -8 -3 -9 4 -5
7 4 12 0 12 -10 0 -10 3 -15 6 -11 8 8 33 -16 27 -26 -2 -4 -1 -7 4 -5 11 2
71 -33 97 -58 12 -11 28 -18 36 -16 11 3 9 -2 -5 -19 l-20 -23 25 16 c26 16
61 10 75 -12 6 -9 2 -9 -14 0 -18 9 -27 8 -47 -5 -30 -19 -31 -46 -1 -71 22
-19 22 -19 5 2 -23 26 -23 51 0 63 20 11 52 -2 33 -13 -6 -4 -16 -4 -23 0 -6
4 -8 3 -4 -4 3 -5 0 -13 -6 -15 -9 -4 -8 -6 3 -6 8 -1 21 5 27 11 8 8 15 9 20
3 4 -6 17 -11 30 -12 18 -2 22 2 22 27 0 17 7 33 18 39 9 6 12 11 6 11 -5 0
-15 -5 -20 -10 -13 -13 -67 8 -58 21 3 5 -2 6 -10 3 -8 -3 -25 5 -37 17 -12
12 -43 33 -68 47 -65 34 -100 69 -127 131 -28 62 -29 67 -11 52 8 -6 19 -28
25 -49 7 -21 24 -49 38 -63 l26 -24 -26 39 c-32 48 -34 67 -3 38 13 -12 27
-22 31 -22 4 0 -8 15 -27 33 -42 39 -62 102 -53 171 6 50 20 76 41 76 7 0 16
12 19 26 6 23 11 26 36 20 35 -7 106 19 74 27 -16 4 -17 5 -1 6 10 0 20 -6 23
-14 4 -8 10 -15 16 -15 5 0 6 5 3 10 -3 6 -2 10 4 10 5 0 13 -4 16 -10 10 -17
25 -11 18 8 -3 9 7 2 24 -15 16 -18 32 -31 35 -28 6 6 9 -15 9 -75 1 -38 3
-42 14 -27 18 26 35 21 34 -10 -2 -24 -2 -25 -6 -5 -2 12 -9 20 -14 16 -5 -3
-6 -10 -3 -16 4 -6 2 -8 -4 -4 -18 11 -22 -10 -6 -30 9 -10 13 -13 9 -6 -3 6
-1 12 4 12 18 0 12 -15 -14 -38 -27 -23 -40 -29 -30 -12 3 6 -1 7 -9 4 -21 -8
-21 22 -1 43 20 20 13 28 -13 14 -51 -27 -112 8 -112 64 0 50 56 93 84 65 6
-6 7 -11 1 -10 -34 7 -88 -24 -68 -39 4 -3 8 -15 8 -26 0 -29 47 -52 82 -39
32 11 43 48 17 58 -22 9 -30 0 -15 -17 9 -11 8 -17 -4 -27 -9 -8 -15 -9 -14
-4 4 24 -2 44 -16 44 -7 0 -19 -8 -24 -17 -9 -15 -10 -15 -11 -2 0 20 20 39
43 39 12 0 16 4 11 13 -5 8 -2 7 9 -2 10 -8 20 -11 23 -8 10 10 -58 62 -80 62
-12 0 -32 -8 -45 -17 -30 -23 -83 -25 -75 -3 4 8 1 15 -5 15 -6 0 -11 -12 -10
-27 1 -16 -5 -50 -14 -76 -10 -26 -17 -60 -18 -75 0 -24 -1 -25 -9 -7 -6 14
-9 15 -9 5 -1 -9 8 -23 19 -33 11 -9 20 -27 20 -39 0 -19 -2 -20 -10 -8 -6 9
-10 10 -10 3 0 -6 10 -20 23 -30 25 -20 48 -51 29 -39 -24 14 -10 -10 17 -31
15 -12 36 -20 47 -18 10 2 43 4 72 4 28 1 52 5 52 10 0 5 -17 9 -37 9 -86 -2
-91 0 -121 45 -25 37 -28 48 -23 73 0 4 9 0 18 -7 14 -12 16 -12 9 1 -4 8 1 6
11 -5 39 -43 138 -60 183 -33 16 10 22 10 32 -1 11 -11 10 -12 -1 -6 -9 5 -12
3 -9 -5 5 -15 -25 -50 -42 -50 -5 0 -10 -7 -10 -15 0 -8 5 -15 10 -15 6 0 10
5 10 12 0 9 3 9 12 0 13 -13 52 3 43 19 -4 5 -11 7 -16 4 -5 -4 -9 -2 -9 4 0
5 6 14 13 18 6 4 17 23 24 40 11 32 11 33 -14 27 -14 -4 -55 -7 -92 -8 -90 -1
-121 17 -163 96 -32 60 -37 89 -17 96 5 2 7 8 3 13 -3 5 5 9 18 9 21 0 23 -4
23 -56 0 -44 4 -59 20 -71 11 -8 19 -19 17 -24 -1 -5 4 -8 10 -7 7 2 12 -2 11
-7 -4 -23 180 -24 214 -2 8 5 7 -4 -3 -29 -15 -37 -14 -51 5 -40 6 4 7 14 4
23 -4 11 -3 14 5 9 7 -4 13 0 14 11 0 10 2 25 3 33 1 8 -4 22 -9 30 -9 13 -9
13 6 2 9 -8 19 -21 21 -30 2 -9 3 -4 1 12 -3 16 -1 27 2 23 8 -8 34 11 34 25
0 6 -8 4 -17 -3 -15 -11 -16 -11 -5 1 6 8 12 27 12 43 0 15 12 44 26 63 23 30
25 38 16 59 -7 14 -17 25 -24 25 -9 0 -9 -3 0 -12 15 -15 16 -54 2 -63 -8 -5
-16 45 -12 77 1 3 -13 13 -31 22 -18 8 -41 24 -52 36 -10 11 -24 20 -32 20 -7
0 -13 7 -13 15 0 22 10 19 43 -12 17 -16 27 -22 22 -14 -5 9 -3 12 6 9 8 -3
14 -10 14 -17 0 -16 25 -30 43 -23 11 4 13 1 7 -9 -4 -8 -4 -11 0 -6 5 4 19
-11 33 -34 32 -54 27 -109 -22 -214 -42 -92 -69 -125 -96 -118 -12 3 -22 -3
-30 -17 -17 -32 -5 -36 48 -14 37 16 47 25 45 42 -2 12 2 22 8 22 5 0 7 -4 4
-10 -3 -5 -1 -10 6 -10 7 0 9 -3 6 -6 -3 -4 -2 -15 3 -24 16 -30 -38 -67 -107
-75 -32 -3 -80 -10 -106 -16 -61 -12 -80 -11 -72 1 3 6 -1 10 -9 10 -8 0 -17
-4 -21 -10 -3 -5 -12 -7 -20 -4 -8 4 -12 11 -8 17 4 6 1 7 -6 2 -7 -4 -23 3
-39 16 l-27 24 20 -24 c20 -23 75 -57 75 -46 0 4 12 -3 26 -14 15 -11 30 -18
35 -15 5 3 9 0 9 -5 0 -6 9 -11 19 -11 11 0 23 -4 26 -10 3 -5 13 -10 22 -10
31 0 92 -35 97 -55 2 -11 3 -6 3 10 -1 20 -7 29 -16 27 -8 -2 -26 8 -40 21
-14 13 -35 27 -46 31 -16 6 -17 9 -5 16 8 5 17 7 21 4 4 -2 10 0 14 6 3 5 13
10 21 10 8 0 13 -4 10 -9 -4 -5 3 -7 14 -4 11 3 22 9 25 13 3 5 13 6 24 3 25
-6 83 48 84 81 1 15 9 29 19 32 10 3 15 11 11 20 -6 15 12 20 21 5 8 -13 -4
-42 -15 -35 -5 3 -6 -2 -3 -10 3 -9 1 -16 -6 -16 -6 0 -8 -5 -5 -10 4 -6 10
-8 14 -6 4 3 5 -11 3 -30 -3 -20 0 -35 7 -35 6 -1 16 -2 22 -3 7 0 15 -10 20
-21 6 -15 8 -16 8 -4 1 9 -8 28 -19 42 -21 26 -23 42 -16 112 6 58 -4 66 -39
32 -16 -17 -24 -27 -17 -23 6 4 12 2 12 -3 0 -17 -30 -13 -37 5 -4 12 5 26 28
46 33 28 34 28 14 44 -19 15 -19 15 10 10 17 -4 24 -3 18 0 -15 7 -17 24 -4
24 5 0 16 -17 25 -37 l17 -38 -6 34 c-3 18 -5 54 -6 80 -1 34 -3 40 -8 22 -4
-14 -13 -27 -21 -29 -12 -4 -13 -2 -4 9 6 8 11 31 10 52 -2 41 16 68 30 45 5
-7 9 -63 10 -125 2 -95 5 -117 23 -146 18 -29 20 -41 12 -80 -11 -60 8 -69 45
-21 15 19 29 33 31 30 8 -8 -27 -52 -51 -66 -14 -7 -30 -26 -37 -42 -31 -74
-95 -117 -181 -120 -49 -1 -50 -2 -11 -5 23 -2 47 -11 53 -19 17 -20 27 -18
58 11 15 14 36 25 47 26 11 0 14 3 7 6 -6 2 -10 9 -7 13 3 5 12 7 19 4 9 -3
17 3 21 15 3 12 11 21 16 21 5 0 8 3 8 8 -4 21 3 32 19 32 14 0 15 2 2 10 -11
7 -9 11 12 19 21 8 25 15 22 33 -5 21 -4 21 6 5 6 -10 9 -26 5 -35 -4 -12 -3
-14 5 -6 13 13 22 56 9 49 -5 -4 -9 -1 -9 4 0 6 12 11 26 11 31 0 70 -20 57
-29 -15 -10 -45 -100 -39 -116 7 -18 7 -18 -50 1 -25 8 -48 13 -51 11 -2 -3
13 -11 34 -17 54 -18 53 -17 38 -54 -14 -33 -11 -40 18 -45 4 0 20 -7 37 -16
16 -8 33 -15 37 -15 4 1 -9 10 -29 21 -42 21 -48 46 -23 89 8 14 15 39 15 55
0 17 6 40 13 51 49 85 48 82 27 77 -11 -3 -17 -9 -14 -14 7 -12 -9 -12 -22 0
-5 5 -22 11 -39 13 -22 2 -31 9 -33 25 -2 12 -10 24 -18 27 -8 3 -13 2 -10 -3
3 -5 -5 -20 -18 -34 -19 -20 -25 -23 -30 -12 -3 8 -1 17 4 20 5 3 7 17 4 31
-3 18 -1 23 7 18 8 -4 9 -3 5 4 -4 6 -14 9 -24 5 -10 -3 -5 6 12 21 31 28 36
29 60 20 17 -6 22 -29 9 -37 -5 -2 -2 -2 5 0 8 1 12 -3 9 -9 -2 -7 -10 -12
-16 -10 -8 1 -8 -4 1 -17 9 -14 16 -17 24 -10 14 12 54 -5 54 -21 0 -14 16
-12 32 3 7 6 21 12 31 13 64 3 64 3 37 17 -15 8 -28 10 -31 4 -4 -6 -16 -7
-28 -4 -12 3 -21 1 -21 -3 0 -10 -40 -1 -57 13 -20 15 -15 25 12 23 13 -2 22
1 19 6 -3 5 -12 7 -20 4 -8 -3 -14 1 -14 10 0 9 5 12 12 8 7 -5 8 -3 3 7 -17
27 -12 68 12 89 13 11 23 18 23 15 0 -3 11 2 25 11 28 18 90 13 98 -9 4 -9 6
-9 6 1 1 6 7 12 15 12 8 0 18 5 22 11 4 8 0 9 -15 4 -11 -3 -26 -3 -33 1 -7 4
-26 8 -42 8 -23 1 -32 7 -38 26 -6 22 -7 20 -4 -8 2 -23 -1 -31 -10 -28 -7 3
-20 -4 -30 -15 -19 -21 -44 -26 -44 -8 0 5 4 7 10 4 5 -3 7 0 4 9 -3 9 6 27
22 43 16 15 28 31 26 35 -1 4 5 5 14 1 14 -5 15 -3 4 17 -9 17 -9 25 1 34 9 8
10 8 5 -1 -5 -9 0 -13 16 -13 l22 0 -22 16 c-12 8 -26 13 -31 10 -5 -3 -14 1
-21 9 -7 8 -9 15 -4 15 5 0 0 7 -10 15 -11 8 -17 18 -14 21 11 10 48 -7 48
-22 0 -8 5 -12 10 -9 6 3 10 1 10 -4 0 -6 7 -11 15 -11 8 0 15 -5 15 -11 0 -5
5 -7 12 -3 8 5 6 11 -6 19 -9 7 -14 19 -10 28 3 8 1 18 -5 22 -7 3 -8 0 -5 -9
4 -11 0 -13 -15 -9 -24 6 -26 14 -10 30 13 13 4 33 -14 32 -9 0 -9 -2 1 -6 20
-8 14 -22 -8 -16 -11 3 -20 1 -20 -4 0 -18 -39 -9 -55 12 -14 18 -14 18 -8 1
4 -13 2 -17 -8 -14 -8 3 -14 10 -14 17 0 7 -7 18 -16 24 -26 20 -52 66 -45 82
3 8 3 22 -1 31 -5 14 -8 12 -19 -7 -20 -36 -17 -44 25 -87 37 -37 38 -40 23
-58 -16 -17 -16 -17 1 -5 13 11 20 11 32 1 8 -6 19 -9 24 -6 6 4 15 -2 20 -13
16 -29 13 -39 -4 -17 -8 11 -15 17 -15 13 0 -4 -9 -3 -21 3 -17 9 -25 8 -40
-6 -26 -23 -50 -27 -42 -6 4 10 2 13 -5 8 -7 -4 -10 -2 -7 6 7 18 -40 70 -89
99 -22 12 -36 17 -32 11 10 -17 -3 -15 -20 3 -9 8 -21 15 -27 15 -7 0 -6 -4 3
-10 19 -12 8 -13 -24 0 -14 5 -28 5 -31 1 -6 -11 40 -28 80 -30 16 -1 39 -11
50 -23 l20 -22 -24 19 c-14 11 -21 15 -18 8 8 -14 -9 -63 -22 -63 -5 0 -12 12
-17 28 -5 18 -8 22 -11 11 -4 -15 -8 -14 -43 5 -22 11 -40 28 -40 36 0 11 -2
12 -8 3 -5 -7 -13 -9 -21 -3 -8 4 -21 6 -29 2 -9 -3 -13 -1 -9 4 3 6 -4 11
-16 11 -22 2 -22 2 -2 -13 11 -8 20 -23 21 -34 1 -15 -3 -17 -20 -10 -13 5
-30 4 -42 -2 -16 -9 -17 -8 -6 3 6 7 12 20 12 29 -1 12 -3 12 -15 -4 -7 -10
-18 -15 -24 -11 -6 3 -11 1 -11 -6 0 -6 -8 -9 -20 -6 -10 3 -24 -1 -30 -8 -6
-8 -18 -11 -25 -9 -7 3 -24 0 -37 -6 -19 -10 -18 -7 6 14 16 14 36 26 44 26 9
0 23 7 33 16 9 8 33 16 53 17 36 2 52 17 18 17 -33 0 -82 30 -75 45 6 18 6 18
47 1 l33 -14 -5 45 c-4 36 -2 45 9 41 9 -3 14 -20 14 -46 0 -46 4 -52 37 -57
12 -1 35 -6 49 -9 46 -13 50 11 14 86 -18 37 -35 65 -38 61 -3 -3 5 -28 19
-55 14 -28 24 -52 22 -53 -2 -2 -17 21 -33 52 -16 31 -31 50 -33 43 -2 -6 14
-39 37 -72 28 -41 36 -58 24 -53 -10 4 -33 9 -51 12 -32 6 -34 8 -30 42 3 20
-1 59 -9 86 -15 58 -16 76 -4 56 7 -11 11 -9 20 8 10 18 9 21 -6 21 -10 0 -26
-9 -36 -20z m297 -315 c2 -7 -3 -17 -12 -21 -36 -15 -40 -13 -29 16 11 28 31
31 41 5z m-287 -31 c81 -40 104 -77 113 -177 4 -45 6 -85 3 -89 -2 -5 -16 -8
-31 -8 -20 0 -23 3 -13 9 10 7 14 28 13 76 0 54 -5 74 -26 103 -30 43 -99 102
-89 76 5 -13 2 -15 -13 -11 -42 13 -101 10 -124 -6 -19 -13 -21 -17 -7 -17 9
0 17 -4 17 -10 0 -5 -7 -10 -15 -10 -8 0 -15 2 -15 4 0 2 -3 11 -6 20 -4 11
-1 16 11 16 10 0 13 5 9 12 -4 6 -3 8 3 5 6 -4 18 2 28 13 25 28 77 25 142 -6z
m353 -24 c42 -37 70 -50 70 -32 0 4 -5 13 -12 20 -9 10 -8 16 6 30 17 15 18
15 13 0 -3 -9 0 -22 8 -28 16 -13 66 -10 77 5 4 5 6 0 5 -13 -1 -16 -8 -22
-25 -22 -13 0 -20 -4 -17 -10 3 -6 -4 -10 -17 -11 -13 0 -17 -3 -10 -6 6 -2
12 -9 12 -14 0 -6 -6 -7 -12 -3 -9 5 -8 2 1 -9 8 -11 21 -15 32 -12 15 5 19 1
19 -17 0 -17 -3 -19 -9 -9 -15 23 -24 -6 -21 -69 1 -20 -4 -42 -13 -56 -4 -7
0 -14 8 -18 9 -3 14 -17 14 -33 -2 -24 -2 -25 -6 -6 -5 28 -45 40 -79 25 -18
-9 -23 -9 -21 0 1 7 -4 12 -12 13 -8 0 -16 6 -18 13 -6 16 7 15 27 -3 12 -11
24 -12 45 -6 29 9 29 9 5 10 -31 1 -57 55 -38 78 8 11 7 12 -6 7 -9 -3 -16
-10 -16 -15 0 -5 -5 -9 -12 -9 -6 0 -3 8 7 20 16 18 17 22 1 54 -17 37 -20 62
-8 69 4 2 2 2 -5 1 -21 -5 -25 14 -6 26 16 9 15 10 -5 5 -13 -4 -21 -2 -20 3
2 6 0 9 -4 9 -4 -1 -14 7 -22 18 -11 15 -11 22 -3 27 18 11 18 11 67 -32z
m-226 8 c9 -13 14 -16 10 -8 -7 12 -5 13 8 3 8 -7 18 -9 23 -5 4 4 3 -3 -4
-15 -13 -25 -14 -36 -3 -30 4 3 12 -1 19 -8 10 -10 9 -15 -5 -20 -14 -5 -14
-7 -2 -15 11 -7 12 -10 2 -10 -9 0 -11 -7 -7 -21 5 -15 4 -19 -4 -15 -8 5 -10
-3 -9 -25 2 -20 -2 -33 -10 -35 -7 -1 -8 0 -2 3 5 2 7 10 3 16 -11 18 -11 51
-1 65 7 8 7 12 0 12 -6 0 -9 11 -6 24 2 14 -1 28 -7 32 -8 4 -9 3 -5 -4 4 -7
5 -12 2 -12 -3 0 -10 10 -17 21 -9 17 -8 20 3 13 11 -7 11 -5 0 9 -8 9 -11 20
-8 26 3 5 0 12 -6 14 -8 4 -9 6 -2 6 6 1 19 -9 28 -21z m148 -17 c-3 -8 -1
-12 5 -8 13 8 26 -20 17 -35 -7 -11 -24 6 -44 42 -6 12 -4 16 10 16 11 0 16
-5 12 -15z m271 -51 c-3 -11 -12 -20 -20 -20 -13 0 -13 -2 -2 -17 12 -14 9
-13 -15 2 -16 11 -24 21 -17 23 6 2 9 8 6 13 -4 5 0 6 8 3 8 -3 18 -1 22 5 11
18 23 12 18 -9z"/>
<path d="M1644 1722 c-17 -11 -55 -82 -44 -82 5 0 17 14 26 31 12 25 18 29 25
18 7 -11 9 -9 9 8 0 12 6 24 13 26 8 4 7 6 -3 6 -8 0 -20 -3 -26 -7z"/>
<path d="M1282 2113 c2 -16 9 -27 15 -26 11 2 46 -49 48 -68 1 -15 41 -89 48
-89 5 0 -1 17 -13 37 -23 39 -35 77 -22 71 4 -2 31 -16 61 -31 30 -16 77 -31
106 -34 46 -5 54 -3 64 15 10 18 9 20 -10 17 -11 -2 -29 -7 -39 -10 -11 -3
-40 1 -65 9 -55 19 -151 72 -149 83 3 19 -17 53 -31 53 -12 0 -15 -8 -13 -27z"/>
<path d="M944 1975 l-1 -30 11 27 c9 20 15 24 28 17 11 -6 18 -5 21 5 5 11 -2
14 -26 13 -28 -2 -32 -5 -33 -32z"/>
<path d="M434 1875 c9 -9 20 -13 26 -10 5 3 10 1 10 -4 0 -6 19 -11 43 -11 46
0 77 13 58 24 -6 4 -11 2 -11 -3 0 -13 -45 -14 -68 -2 -9 4 -30 11 -46 15 -26
6 -27 6 -12 -9z"/>
<path d="M460 1825 c0 -18 31 -56 41 -50 14 9 11 25 -6 25 -7 0 -19 8 -24 18
-6 9 -11 12 -11 7z"/>
<path d="M610 1770 c0 -5 5 -10 10 -10 6 0 10 -5 10 -11 0 -7 -9 -9 -22 -6
-22 6 -23 6 -3 -8 38 -27 49 -39 38 -42 -6 -2 -9 -14 -6 -26 4 -18 3 -19 -7
-7 -9 13 -11 12 -8 -4 5 -34 28 -31 28 3 0 24 4 31 19 31 11 0 23 5 27 11 5 8
-1 10 -18 6 -29 -8 -40 7 -46 61 -2 14 -22 17 -22 2z"/>
<path d="M863 1728 c-1 -18 -3 -46 -5 -63 -2 -23 1 -30 17 -33 20 -4 20 -4 0
12 -12 9 -15 15 -7 16 7 0 11 4 7 9 -3 6 1 16 9 23 12 11 12 17 0 41 -8 15
-16 27 -17 27 -1 0 -3 -15 -4 -32z"/>
<path d="M1447 1662 c-18 -19 -23 -72 -8 -72 5 0 14 7 21 15 11 13 10 14 -4 9
-23 -9 -22 32 1 45 10 5 15 12 12 15 -3 4 -13 -2 -22 -12z"/>
<path d="M585 1631 c-3 -6 0 -11 7 -12 7 -1 2 -5 -12 -9 -22 -7 -21 -8 13 -9
26 -1 36 -5 31 -13 -5 -7 -3 -8 5 -3 10 6 10 10 -1 19 -7 6 -18 17 -25 24 -7
9 -13 10 -18 3z"/>
<path d="M455 1600 c3 -5 -1 -10 -10 -10 -12 0 -14 -6 -9 -26 5 -18 1 -29 -11
-38 -10 -7 -20 -22 -21 -33 -3 -17 1 -19 29 -14 29 4 30 5 9 10 -25 6 -31 23
-11 30 6 2 9 -1 5 -7 -4 -6 2 -8 14 -5 19 5 29 33 11 33 -4 0 -8 10 -7 23 1
20 6 22 46 19 25 -2 49 -7 54 -12 12 -12 49 -13 42 -1 -3 4 -25 13 -48 19 -83
21 -100 23 -93 12z"/>
<path d="M1859 1563 c-2 -20 -10 -60 -15 -73 -4 -13 -6 -13 -14 0 -6 9 -10 10
-10 3 0 -6 -10 -13 -22 -15 -12 -2 -23 -7 -25 -13 -4 -12 53 -13 85 -1 20 7
22 12 16 39 -4 18 -7 40 -6 50 1 16 -7 25 -9 10z"/>
<path d="M481 1549 c-1 -9 -4 -31 -7 -48 -4 -21 -3 -31 5 -31 7 0 9 5 6 10 -4
6 -3 16 3 23 5 7 5 23 1 37 -4 14 -7 18 -8 9z"/>
<path d="M1917 1540 c-3 -11 -2 -18 2 -15 13 8 31 -45 25 -71 -4 -17 -2 -24 9
-24 12 0 13 8 5 48 -6 26 -16 55 -23 65 -12 17 -13 17 -18 -3z"/>
<path d="M550 1535 c-7 -9 -6 -16 5 -25 12 -10 15 -10 15 3 0 9 8 17 18 19 14
3 13 5 -5 10 -13 3 -27 1 -33 -7z"/>
<path d="M534 1486 c-3 -9 -14 -16 -23 -17 -10 0 -8 -4 8 -10 13 -5 26 -7 29
-4 3 3 -1 5 -8 5 -9 0 -8 5 5 13 12 10 15 16 6 21 -6 4 -14 0 -17 -8z"/>
<path d="M366 1455 c-9 -25 -8 -27 13 -20 11 3 22 1 26 -5 3 -5 -2 -10 -12
-10 -17 -1 -17 -1 0 -11 13 -8 15 -14 7 -30 -8 -14 -8 -19 2 -17 7 2 14 -8 16
-22 2 -14 11 -31 20 -37 9 -7 11 -13 5 -13 -6 0 -8 -11 -5 -25 2 -14 8 -22 13
-19 15 9 10 47 -11 87 -11 20 -20 49 -20 64 0 20 10 6 34 -52 21 -51 30 -84
24 -92 -6 -7 -4 -14 3 -19 8 -5 9 -3 4 6 -6 9 -4 12 7 8 8 -4 21 -2 29 3 11 7
10 9 -4 9 -14 0 -17 5 -12 20 4 13 1 22 -9 26 -8 3 -13 14 -11 25 2 11 0 17
-4 14 -5 -3 -11 2 -15 10 -3 8 0 15 7 15 6 0 1 7 -11 16 -29 20 -28 44 1 44
12 0 29 5 37 10 9 6 -6 7 -44 3 -47 -5 -57 -3 -51 7 6 9 4 11 -5 5 -7 -4 -15
-2 -20 5 -5 8 -9 7 -14 -5z"/>
<path d="M1984 1428 c-6 -9 2 -22 14 -24 10 -1 45 -14 61 -23 8 -4 31 -2 50 5
32 11 36 10 39 -5 2 -13 10 -17 27 -13 14 2 36 -3 50 -12 20 -13 25 -14 25 -2
0 31 -52 51 -131 48 -56 -1 -80 2 -95 14 -19 15 -19 16 1 9 45 -15 49 -16 31
-4 -26 16 -64 20 -72 7z"/>
<path d="M1890 1369 c0 -6 -9 -8 -21 -4 -13 4 -27 1 -39 -10 -20 -18 -18 -35
3 -35 7 0 6 4 -3 10 -9 6 -10 10 -3 10 13 0 28 -19 20 -26 -3 -3 -14 -6 -24
-7 -18 -1 -19 -5 -11 -40 4 -21 5 -44 1 -50 -15 -24 -12 -47 7 -57 15 -8 19
-20 18 -50 l-1 -40 -26 16 c-23 14 -23 12 4 -12 27 -25 28 -27 7 -22 -12 4
-20 2 -16 -3 3 -5 13 -9 22 -9 9 0 32 -9 50 -20 33 -20 78 -27 68 -11 -4 5 0
12 6 15 7 3 0 2 -16 -1 -22 -5 -27 -3 -21 7 5 9 4 11 -3 6 -6 -4 -20 2 -32 14
-24 24 -27 78 -5 86 8 4 12 11 8 17 -3 5 -1 7 5 3 12 -7 142 43 142 55 0 5 7
6 15 3 9 -4 15 -1 15 7 0 8 14 22 30 31 17 9 30 24 30 32 0 12 8 15 33 12 17
-3 48 -1 67 3 l34 7 -22 22 c-32 32 -68 28 -103 -10 -16 -18 -29 -36 -29 -40
0 -5 -5 -8 -11 -8 -6 0 -25 -11 -42 -24 -18 -13 -43 -27 -57 -31 -14 -4 -32
-14 -41 -22 -9 -7 -29 -16 -45 -19 -15 -3 -31 -7 -35 -10 -4 -2 -20 1 -36 8
-19 8 -23 12 -12 15 12 3 15 14 11 57 -4 48 -2 55 17 61 11 3 21 13 21 22 0 8
10 23 23 34 12 10 16 18 10 19 -7 0 -13 -5 -13 -11z"/>
<path d="M1929 1371 c11 -7 10 -10 -5 -14 -18 -5 -18 -6 1 -5 32 0 65 -13 65
-27 0 -8 9 -10 27 -7 24 5 25 6 8 12 -20 7 -20 7 0 12 11 3 4 5 -17 5 -21 0
-43 7 -53 16 -9 10 -22 17 -28 17 -8 0 -7 -4 2 -9z"/>
<path d="M2113 1365 c18 -13 17 -14 -2 -20 -12 -3 -21 -11 -21 -16 0 -14 43
18 46 34 1 7 -8 14 -20 14 -20 2 -20 1 -3 -12z"/>
<path d="M739 1354 c-12 -14 -10 -19 8 -34 25 -20 19 -37 -6 -17 -14 11 -14
10 -2 -5 7 -10 10 -18 5 -18 -5 0 -2 -6 6 -13 8 -7 22 -25 30 -41 14 -27 15
-28 18 -8 2 12 10 22 18 22 16 0 18 9 5 28 -6 10 -10 9 -14 -7 -7 -26 -19 -27
-35 -1 -11 18 -10 22 6 28 17 7 17 9 -3 45 -20 34 -23 36 -36 21z"/>
<path d="M598 1328 c-12 -31 1 -151 18 -168 15 -14 16 -13 10 4 -4 11 -9 35
-12 55 -3 20 -7 41 -9 48 -2 6 4 14 13 18 11 4 13 8 5 13 -6 4 -12 16 -15 27
-3 17 -4 18 -10 3z"/>
<path d="M680 1330 c0 -8 4 -22 10 -30 6 -9 5 -17 -3 -22 -9 -6 -9 -8 1 -8 7
0 10 -5 6 -12 -4 -6 -3 -8 4 -4 12 7 5 66 -9 81 -6 5 -9 4 -9 -5z"/>
<path d="M1473 1302 c4 -18 2 -22 -9 -18 -9 3 -12 1 -9 -4 3 -6 0 -10 -7 -10
-7 0 -2 -10 12 -21 21 -17 22 -20 5 -15 -19 6 -19 5 -2 -8 14 -11 15 -15 5
-20 -7 -3 -3 -3 10 0 14 3 22 1 22 -7 0 -7 3 -9 6 -6 4 4 2 13 -5 21 -9 11 -6
19 14 37 26 26 31 39 14 39 -5 0 -7 -4 -4 -10 14 -22 -15 -8 -36 18 -21 26
-22 26 -16 4z"/>
<path d="M1918 1303 c6 -2 12 -9 12 -14 0 -6 -4 -8 -8 -5 -5 3 -9 -1 -9 -7 0
-7 8 -14 18 -14 12 -1 16 3 12 13 -3 10 2 14 18 14 31 0 21 6 -21 13 -19 3
-29 3 -22 0z"/>
<path d="M1979 1278 c-8 -7 -21 -21 -28 -30 -10 -14 -9 -16 8 -11 11 3 17 11
15 18 -4 9 3 11 23 9 15 -2 20 -1 10 2 -9 3 -15 10 -12 15 8 13 2 11 -16 -3z"/>
<path d="M630 1271 c0 -4 13 -19 28 -32 28 -24 82 -111 82 -133 0 -30 130
-118 159 -108 9 3 11 0 6 -8 -6 -10 -4 -12 7 -7 9 3 20 1 26 -5 7 -7 16 -7 28
0 13 7 24 6 38 -3 25 -16 131 -31 123 -18 -3 5 3 10 14 11 10 1 28 3 38 4 11
1 17 7 13 13 -3 5 1 4 9 -2 12 -10 18 -10 29 0 10 9 11 9 6 0 -6 -10 -1 -11
19 -3 17 7 24 7 20 0 -3 -6 -1 -10 4 -10 6 0 11 5 11 11 0 6 9 1 19 -12 l19
-24 -5 28 c-6 28 -8 29 -83 29 -82 1 -97 -1 -80 -12 8 -5 10 -10 4 -10 -16 0
-45 35 -37 45 5 4 -2 2 -14 -4 -26 -13 -31 -26 -8 -17 8 3 15 1 15 -4 0 -13
-49 -13 -103 -1 -23 6 -60 13 -81 16 -29 5 -36 9 -25 16 10 6 5 9 -17 9 -39 0
-118 55 -110 76 3 9 1 12 -4 9 -6 -4 -20 14 -31 39 -11 25 -31 54 -45 63 -14
10 -34 26 -45 36 -21 19 -29 21 -29 8z"/>
<path d="M840 1221 c0 -24 16 -37 23 -19 3 7 6 0 7 -17 1 -28 2 -28 12 -10 15
28 13 26 50 36 28 7 26 8 -13 3 -35 -4 -51 -1 -63 11 -15 15 -16 15 -16 -4z"/>
<path d="M817 1200 c-3 -11 -1 -33 3 -48 7 -23 8 -21 9 21 1 50 -3 60 -12 27z"/>
<path d="M1055 1210 c-4 -6 -11 -8 -16 -5 -5 4 -9 -3 -9 -14 0 -11 5 -23 10
-26 6 -3 10 3 10 14 0 11 8 25 18 30 9 6 12 11 5 11 -6 0 -15 -5 -18 -10z"/>
<path d="M1278 1208 c14 -14 16 -48 2 -48 -5 0 -7 6 -4 14 7 19 -16 32 -27 15
-5 -8 -8 -23 -8 -34 0 -11 3 -14 6 -8 3 8 14 11 29 7 15 -4 24 -2 24 6 0 6 5
8 12 4 7 -4 2 7 -11 24 -12 18 -25 32 -29 32 -3 0 -1 -5 6 -12z"/>
<path d="M1435 1209 c-4 -6 -13 -8 -19 -6 -7 3 -13 -1 -13 -8 0 -7 8 -10 21
-7 21 4 21 4 1 -11 -25 -20 -7 -22 19 -2 12 9 15 15 7 15 -8 0 -11 6 -7 15 6
17 0 20 -9 4z"/>
<path d="M1003 1189 c3 -8 11 -31 18 -51 7 -21 15 -38 19 -38 7 0 40 72 40 86
0 18 -18 -11 -24 -36 -7 -37 -22 -32 -31 10 -4 16 -11 33 -17 36 -6 4 -8 1 -5
-7z"/>
<path d="M902 1178 c-15 -15 -15 -30 -1 -62 10 -21 15 -23 38 -15 20 7 36 4
66 -11 31 -16 34 -20 15 -18 -14 2 -30 7 -37 11 -12 8 -29 -10 -19 -20 3 -4 6
-1 6 7 0 10 3 10 16 -1 18 -15 74 -22 74 -9 0 5 7 7 16 3 11 -4 12 -8 4 -13
-8 -5 -7 -9 5 -13 9 -4 14 -3 10 3 -8 12 43 33 63 25 8 -3 11 -12 8 -20 -7
-19 8 -20 23 -2 7 9 36 14 82 15 l72 1 -7 -45 c-6 -44 -5 -44 17 -33 12 7 25
17 29 22 4 6 10 -2 14 -17 5 -22 3 -31 -12 -39 -10 -6 -21 -10 -23 -8 -2 1 -7
-3 -11 -10 -8 -12 -2 -21 34 -49 18 -13 19 -13 12 0 -5 8 5 -1 22 -20 16 -19
28 -39 25 -43 -3 -5 2 -7 11 -5 10 1 17 8 17 13 0 6 13 24 29 40 16 17 36 48
44 70 11 30 15 34 15 17 1 -13 -4 -33 -10 -45 -10 -21 -10 -21 5 -3 9 11 16
29 16 39 0 17 2 18 17 6 10 -8 14 -9 10 -2 -5 8 6 13 40 15 30 2 47 7 46 15
-1 6 11 14 28 18 25 6 29 10 24 28 -4 12 -16 30 -26 39 -22 19 -120 58 -147
58 -14 0 -14 2 -3 9 10 7 7 9 -12 8 -31 -2 -44 -22 -15 -24 11 -1 31 -14 44
-28 26 -28 31 -47 13 -43 -6 2 -14 -3 -16 -9 -3 -8 5 -13 21 -13 17 0 26 -6
26 -15 0 -17 -30 -17 -42 0 -4 6 -8 2 -8 -7 0 -10 -4 -18 -8 -18 -4 0 -7 17
-6 38 2 20 0 27 -2 15 -4 -17 -11 -20 -30 -17 -23 4 -24 3 -14 -17 7 -11 9
-23 6 -27 -3 -3 -6 -1 -6 5 0 34 -79 8 -80 -26 0 -8 6 -6 18 7 15 19 18 20 31
5 12 -13 11 -14 -6 -9 -14 5 -23 1 -27 -10 -5 -13 -9 -15 -18 -6 -7 7 -13 17
-14 24 -1 7 -7 26 -14 43 l-11 30 -19 -25 c-10 -14 -22 -21 -26 -17 -4 4 -2 7
5 7 9 0 12 9 9 25 -7 32 14 49 49 41 21 -5 24 -4 13 4 -12 8 -9 10 13 10 16 0
26 4 23 9 -3 5 -22 5 -42 1 -29 -7 -34 -6 -30 6 3 8 1 14 -4 14 -6 0 -10 -5
-10 -12 0 -6 -3 -8 -6 -5 -4 3 -16 1 -28 -5 -25 -14 -176 -20 -152 -6 9 5 16
14 16 21 0 8 -3 8 -9 -1 -10 -17 -84 -19 -89 -3 -5 15 -18 14 -36 -4 -12 -13
-20 -14 -36 -5 -11 6 -18 15 -15 20 3 5 -4 7 -15 5 -17 -3 -20 0 -15 15 7 21
-10 60 -25 60 -6 0 -5 -9 2 -20 16 -25 0 -55 -28 -55 -23 0 -33 53 -12 66 7 5
8 9 3 9 -6 0 -16 -5 -23 -12z m775 -121 c18 -12 34 -26 37 -32 6 -16 -54 -16
-83 0 -15 8 -20 14 -11 15 9 0 11 3 5 8 -5 4 -21 20 -35 35 l-24 28 39 -16
c22 -9 55 -26 72 -38z m-165 -166 c-19 -25 -59 -37 -55 -15 1 6 -5 11 -13 11
-11 0 -11 -4 3 -19 9 -10 18 -26 19 -34 2 -13 -1 -12 -18 3 -41 37 -41 50 2
69 22 10 40 21 40 25 0 4 8 9 18 11 25 5 27 -20 4 -51z"/>
<path d="M840 1154 c0 -9 11 -25 24 -35 14 -11 27 -32 29 -47 l4 -27 2 26 c0
15 -5 32 -13 39 -8 6 -12 19 -9 27 4 11 2 14 -5 9 -7 -4 -12 -1 -12 8 0 9 -4
16 -10 16 -5 0 -10 -7 -10 -16z"/>
<path d="M923 1154 c-7 -18 17 -38 31 -24 11 11 1 40 -14 40 -6 0 -13 -7 -17
-16z"/>
<path d="M1330 1150 c0 -11 -3 -19 -7 -18 -5 0 -15 -1 -23 -5 -8 -3 -22 -8
-30 -10 -8 -3 4 -5 27 -4 40 2 43 4 43 30 0 15 -2 27 -5 27 -3 0 -5 -9 -5 -20z"/>
<path d="M400 1155 c0 -6 62 -45 73 -45 16 0 5 17 -22 33 -29 17 -51 22 -51
12z"/>
<path d="M1590 1136 c8 -8 31 -17 50 -20 l35 -6 -32 13 c-17 6 -35 15 -39 20
-4 4 -12 7 -18 7 -6 0 -4 -6 4 -14z"/>
<path d="M1720 1070 c0 -6 20 -20 45 -32 24 -12 42 -25 40 -28 -11 -17 33 -38
78 -37 57 0 52 6 -28 38 -33 12 -67 28 -75 35 -29 23 -60 35 -60 24z"/>
<path d="M1767 993 c-9 -2 -15 -9 -12 -14 4 -5 0 -9 -7 -10 -7 -1 3 -5 22 -9
20 -5 39 -5 45 1 8 8 -5 14 -27 10 -4 0 -5 6 -2 14 4 8 5 14 3 14 -2 -1 -12
-3 -22 -6z"/>
<path d="M589 951 c11 -7 11 -10 0 -15 -8 -3 -4 -3 9 0 13 3 22 1 22 -6 0 -6
4 -9 9 -6 4 3 22 0 39 -6 25 -10 34 -10 44 0 11 11 10 12 -3 7 -9 -3 -40 3
-70 14 -58 23 -72 26 -50 12z"/>
<path d="M1163 943 c7 -10 -21 -42 -30 -35 -3 2 -6 2 -8 0 -2 -2 5 -4 15 -5
11 -1 20 4 20 10 0 7 6 1 14 -13 15 -30 12 -40 -15 -40 -10 0 -19 -4 -19 -10
0 -5 18 -10 40 -10 22 0 40 5 40 10 0 6 -4 10 -8 10 -5 0 -14 18 -21 40 -6 21
-17 42 -23 46 -6 4 -8 3 -5 -3z"/>
<path d="M1302 925 c2 -12 -2 -19 -9 -17 -7 1 -13 -3 -13 -9 0 -6 10 -8 23 -5
12 3 16 3 9 0 -6 -3 -10 -9 -7 -13 2 -4 -11 -7 -29 -7 -19 1 -32 5 -28 10 3 5
-2 7 -10 3 -11 -4 -18 2 -23 16 -4 13 -8 17 -11 10 -3 -7 4 -27 17 -44 18 -26
27 -30 50 -25 20 4 31 1 39 -12 9 -14 10 -13 4 7 -4 15 -2 21 4 17 6 -3 14 -1
17 4 5 8 13 6 25 -5 18 -16 18 -16 13 4 -7 29 -21 35 -41 19 -15 -11 -15 -11
-5 2 9 12 7 20 -9 40 -17 21 -19 22 -16 5z"/>
<path d="M1671 901 c-7 -5 -10 -14 -7 -20 4 -6 4 -11 -1 -10 -18 3 -33 -2 -33
-10 0 -12 39 -10 41 1 3 19 5 24 12 36 10 14 7 15 -12 3z"/>
<path d="M707 893 c-10 -9 -9 -93 1 -93 4 0 6 20 4 44 -3 36 -1 45 15 49 13 3
14 5 2 6 -9 0 -19 -2 -22 -6z"/>
<path d="M957 870 c-13 -18 -16 -19 -27 -5 -16 20 -30 19 -30 -1 0 -10 6 -14
15 -10 10 3 16 -2 20 -17 2 -12 6 -31 8 -42 3 -11 5 -4 6 16 1 25 6 36 16 36
8 0 15 -5 15 -10 0 -6 3 -7 6 -4 4 4 1 13 -6 22 -30 36 -1 19 55 -32 46 -42
56 -56 45 -63 -8 -5 -21 -5 -31 1 -17 9 -122 9 -113 0 2 -3 -8 -13 -23 -23
-16 -10 -23 -18 -18 -18 6 0 21 7 34 17 38 26 99 22 149 -10 23 -15 42 -23 42
-19 0 5 -11 15 -25 22 -19 10 -22 16 -12 21 19 11 89 -7 104 -27 8 -11 14 -13
14 -6 1 7 2 18 3 25 1 6 -4 20 -12 30 -19 22 0 23 33 1 13 -9 30 -14 37 -11 8
3 6 6 -5 6 -10 1 -16 5 -12 11 3 5 12 7 19 4 7 -3 16 2 19 10 5 12 1 13 -16 7
-27 -10 -49 -3 -40 12 4 7 -1 6 -10 -2 -9 -7 -24 -11 -32 -7 -9 3 -13 2 -10
-4 4 -6 -8 -9 -29 -8 -21 2 -36 8 -36 16 0 6 -4 12 -10 12 -5 0 -7 -8 -4 -17
3 -11 -7 -4 -25 15 -17 18 -31 29 -31 25 0 -3 -10 3 -22 14 -37 33 -46 34 -61
13z"/>
<path d="M1019 871 c9 -17 15 -20 21 -11 10 17 15 17 34 0 20 -16 56 -24 56
-12 0 11 -42 36 -67 39 -13 2 -23 -2 -23 -8 0 -8 -5 -7 -17 2 -15 13 -15 12
-4 -10z"/>
<path d="M1544 851 c-10 -25 -5 -55 7 -52 12 4 68 -22 63 -30 -3 -5 2 -12 10
-15 9 -3 13 -11 9 -18 -3 -6 3 -2 15 8 22 19 30 32 13 22 -5 -3 -12 1 -15 9
-3 9 -26 24 -51 35 -25 11 -45 24 -45 31 0 6 6 9 13 6 8 -3 20 -1 28 4 11 7 9
9 -8 9 -12 0 -23 5 -25 10 -2 6 -8 -2 -14 -19z"/>
<path d="M1613 842 c-1 -13 15 -31 45 -52 26 -18 41 -27 35 -20 -24 26 -16 39
17 27 17 -7 25 -14 18 -18 -6 -4 4 -6 23 -4 43 3 51 25 9 25 -34 0 -73 17 -66
28 3 5 1 14 -5 22 -6 12 -9 12 -9 2 0 -7 -8 -21 -17 -30 -16 -16 -16 -16 -10
1 5 13 3 17 -5 14 -7 -2 -18 3 -23 10 -9 12 -11 11 -12 -5z"/>
<path d="M1496 824 c4 -14 0 -23 -11 -28 -14 -5 -15 -9 -5 -21 7 -8 19 -15 26
-15 8 0 14 -5 14 -11 0 -5 5 -7 11 -3 6 3 24 -4 41 -16 33 -24 35 -24 40 5 2
16 -3 20 -28 20 -25 0 -31 4 -29 17 3 11 -1 15 -11 11 -8 -3 -14 -1 -14 3 0 5
-9 20 -20 34 -17 22 -19 23 -14 4z"/>
<path d="M1303 793 c-13 -9 -23 -20 -23 -25 0 -6 7 -5 15 2 12 10 15 10 15 -1
0 -9 3 -10 11 -2 6 6 9 18 7 26 -3 13 -6 13 -25 0z"/>
<path d="M1790 770 c0 -5 5 -10 10 -10 15 0 12 -26 -4 -39 -10 -8 -16 -9 -21
-1 -3 5 -1 10 6 10 7 0 10 2 7 5 -3 3 -12 3 -21 -1 -13 -5 -13 -8 4 -25 10
-10 22 -19 25 -18 4 0 10 -5 15 -13 6 -9 8 -6 6 9 0 12 -5 19 -9 17 -11 -7
-10 3 4 25 10 17 15 15 54 -31 24 -28 45 -60 47 -72 3 -19 4 -19 11 -3 5 9 5
25 0 35 -4 9 -6 21 -5 25 1 5 -4 5 -10 1 -8 -5 -10 -2 -6 9 6 15 -15 42 -25
32 -2 -3 -17 9 -33 25 -28 30 -55 39 -55 20z"/>
<path d="M934 719 l-19 -21 37 7 c26 5 47 2 69 -9 39 -19 42 -20 34 -3 -4 6 0
4 8 -5 8 -10 18 -18 22 -18 4 0 18 -11 31 -25 13 -14 29 -25 36 -25 9 0 9 3
-2 10 -8 5 -10 10 -5 10 6 0 -2 8 -18 18 -15 10 -25 21 -21 24 3 4 -14 18 -39
32 -54 32 -107 34 -133 5z"/>
<path d="M246 704 c-9 -8 -16 -18 -16 -22 0 -4 -2 -32 -5 -62 l-4 -55 14 64
c8 35 20 70 26 77 16 19 4 18 -15 -2z"/>
<path d="M275 703 c-12 -30 -15 -73 -5 -73 6 0 10 6 11 13 0 6 2 27 3 45 4 36
1 40 -9 15z"/>
<path d="M1673 701 c-21 -17 -21 -20 -5 -26 15 -6 15 -8 -5 -18 -13 -5 -23
-16 -23 -23 0 -8 10 -3 26 11 14 13 24 30 22 37 -3 7 7 18 21 25 22 10 23 11
6 12 -11 0 -30 -8 -42 -18z"/>
<path d="M1175 680 c-4 -6 -11 -8 -16 -5 -5 4 -9 1 -9 -4 0 -6 7 -11 15 -11 8
0 15 5 15 10 0 6 4 10 10 10 5 0 7 -8 4 -17 -5 -15 -4 -16 5 -3 6 8 11 18 11
23 0 11 -28 9 -35 -3z"/>
<path d="M1446 638 c3 -5 10 -6 15 -3 11 8 11 5 -2 -32 -9 -26 -7 -36 15 -68
24 -34 38 -30 17 4 -6 9 -6 22 1 34 7 13 7 17 0 13 -15 -9 -26 14 -13 27 18
18 12 33 -13 33 -14 0 -22 -4 -20 -8z"/>
<path d="M1660 616 c0 -9 7 -16 15 -16 9 0 12 -6 8 -17 -5 -14 -3 -16 7 -6 10
9 20 5 47 -21 38 -39 40 -47 14 -70 -11 -10 -23 -31 -26 -47 -4 -16 -11 -31
-16 -34 -14 -9 -11 -25 5 -25 8 0 15 16 19 42 3 24 14 49 25 57 21 18 36 51
23 51 -5 0 -12 8 -15 17 -6 15 -5 15 13 -1 11 -10 18 -25 16 -35 -2 -9 3 -25
11 -36 8 -10 14 -14 14 -9 0 6 -5 15 -12 22 -8 8 -8 12 -1 12 17 0 35 -28 27
-42 -4 -7 -4 -10 1 -6 4 4 23 -4 41 -19 19 -14 34 -21 34 -17 1 5 10 -2 21
-15 11 -13 22 -21 25 -18 12 11 -37 66 -78 89 -23 13 -49 37 -58 53 -10 18
-30 34 -50 41 -40 13 -55 38 -17 29 28 -8 103 10 113 27 5 8 2 9 -12 3 -23
-10 -153 -10 -176 0 -13 5 -18 3 -18 -9z"/>
<path d="M1399 573 c32 -81 45 -102 69 -108 12 -3 22 -12 22 -20 0 -18 12 -19
28 -3 9 9 12 9 12 1 0 -7 -4 -15 -10 -18 -5 -3 -10 -11 -10 -16 0 -6 5 -7 10
-4 6 3 10 0 10 -8 0 -8 7 -17 15 -21 8 -3 15 -1 15 3 0 5 18 1 40 -10 21 -10
47 -19 57 -20 17 0 17 -1 0 -7 -16 -7 -16 -9 4 -26 17 -14 21 -15 16 -3 -4 10
1 17 14 20 17 5 18 3 8 -10 -11 -12 -8 -14 22 -11 37 3 49 33 14 34 -34 1 -89
16 -112 31 -13 9 -23 12 -23 9 0 -4 -17 10 -37 31 -21 21 -41 38 -44 38 -3 0
-13 8 -23 18 -10 9 -21 17 -25 17 -5 0 -18 23 -30 50 -12 28 -26 48 -31 45 -6
-4 -10 3 -10 14 0 12 -4 21 -10 21 -5 0 -1 -21 9 -47z"/>
<path d="M1567 585 c3 -20 1 -26 -5 -17 -17 25 -21 -27 -6 -77 17 -57 52 -95
74 -80 13 9 12 10 -2 5 -20 -6 -38 20 -38 54 0 12 -4 18 -10 15 -5 -3 -10 1
-10 9 0 9 5 16 11 16 7 0 9 12 4 36 -4 23 -3 34 4 30 14 -9 21 7 10 24 -8 13
-10 13 -18 1 -8 -12 -10 -12 -13 0 -3 8 -3 1 -1 -16z"/>
<path d="M579 561 c-18 -20 -24 -39 -24 -74 0 -25 3 -41 7 -34 7 11 13 -12 9
-35 0 -4 5 -5 12 -2 17 6 18 36 1 49 -24 19 -20 58 9 86 15 15 24 30 19 33 -5
3 -19 -8 -33 -23z"/>
<path d="M1080 581 c0 -5 7 -16 15 -24 8 -8 11 -17 8 -21 -3 -3 0 -13 8 -22
11 -13 11 -15 -2 -14 -31 5 -49 -1 -49 -16 0 -9 5 -12 13 -8 6 4 9 4 5 -1 -4
-4 -3 -14 3 -22 24 -28 -9 -11 -41 22 -32 33 -50 33 -50 0 0 -5 4 -4 8 3 7 9
14 7 33 -9 13 -12 23 -26 21 -31 -1 -5 2 -7 7 -4 5 3 12 -2 16 -12 7 -16 8
-15 15 3 4 11 6 34 3 50 l-5 30 21 -25 21 -25 0 28 c0 16 -7 44 -16 63 -17 35
-34 53 -34 35z"/>
<path d="M1660 552 c0 -24 10 -67 22 -95 23 -52 23 -52 29 -22 5 29 -6 59 -20
51 -3 -2 -7 14 -9 36 -4 61 -21 84 -22 30z"/>
<path d="M691 556 c-7 -8 -10 -33 -8 -55 5 -58 15 -61 14 -5 0 28 5 50 11 52
14 4 16 22 3 22 -5 0 -14 -6 -20 -14z"/>
<path d="M1051 552 c-16 -30 -14 -52 4 -46 12 5 13 10 4 20 -14 17 2 18 20 2
11 -11 11 -9 1 12 -17 34 -17 34 -29 12z"/>
<path d="M1944 522 l1 -53 13 32 c8 19 9 35 4 38 -5 3 -11 13 -14 21 -3 8 -5
-9 -4 -38z"/>
<path d="M516 501 c-11 -11 -15 -21 -10 -21 5 0 1 -5 -8 -11 -11 -6 -18 -22
-18 -39 0 -17 -5 -30 -11 -30 -7 0 -9 10 -5 25 4 14 2 25 -4 25 -17 0 -15 -50
3 -62 7 -4 4 -12 -7 -23 -23 -24 -10 -105 17 -105 8 0 8 3 -2 9 -9 6 -10 11
-2 15 6 4 22 -5 35 -21 21 -24 24 -25 22 -8 -2 11 -9 19 -16 17 -6 -1 -9 2 -5
8 3 5 -5 14 -18 19 -33 13 -41 28 -24 46 17 16 27 10 27 -17 0 -11 4 -17 10
-13 10 6 2 36 -14 47 -7 4 -2 22 13 49 13 23 19 39 13 35 -6 -3 -13 -3 -16 2
-2 4 4 9 15 9 15 1 19 -5 19 -28 0 -18 -5 -28 -12 -26 -7 1 -13 -4 -12 -10 3
-39 5 -44 14 -38 8 5 8 11 0 20 -13 15 12 29 27 14 12 -12 15 32 3 46 -5 5
-10 28 -12 49 l-3 38 -19 -21z"/>
<path d="M895 468 c2 -31 6 -62 10 -68 9 -15 25 -12 25 5 0 8 -4 15 -10 15 -5
0 -10 12 -11 28 -1 15 -4 38 -9 52 -5 17 -6 6 -5 -32z"/>
<path d="M931 493 c-10 -11 -11 -20 -2 -36 l11 -22 -5 22 c-7 25 12 40 28 23
9 -10 9 -14 0 -17 -7 -3 -13 -9 -13 -14 0 -6 5 -7 12 -3 7 5 9 2 5 -9 -5 -12
0 -14 20 -11 24 5 25 3 12 -13 -13 -16 -12 -17 4 -4 11 9 17 10 17 2 0 -6 5
-11 11 -11 6 0 -5 19 -26 41 -28 32 -34 43 -24 50 7 4 10 12 5 16 -5 4 -11 2
-13 -5 -3 -8 -9 -10 -16 -3 -8 6 -17 4 -26 -6z"/>
<path d="M727 461 c2 -7 -2 -21 -9 -30 -11 -14 -11 -14 3 -4 9 7 18 10 21 8 3
-3 8 4 11 15 4 16 2 20 -8 16 -8 -3 -16 -2 -18 2 -2 4 -2 1 0 -7z"/>
<path d="M1302 441 c-5 -23 -8 -41 -6 -41 10 0 31 58 25 69 -5 8 -12 -2 -19
-28z"/>
<path d="M1965 436 c0 -19 3 -38 8 -42 10 -11 9 -26 -2 -19 -5 3 -12 1 -15 -4
-7 -10 44 -105 52 -97 2 3 -1 13 -9 22 -11 13 -11 18 -1 21 17 6 15 58 -3 73
-8 7 -15 28 -15 46 0 19 -3 34 -7 34 -5 0 -8 -15 -8 -34z"/>
<path d="M949 387 c6 -8 8 -17 4 -20 -3 -4 0 -7 8 -7 8 0 21 -9 29 -21 39 -56
39 -56 40 -34 0 12 -17 38 -38 58 -36 35 -67 52 -43 24z"/>
<path d="M885 318 c0 -29 -3 -68 -7 -86 -4 -18 -4 -31 1 -28 5 3 11 -4 14 -16
4 -12 9 -20 12 -16 3 3 1 17 -5 32 -5 15 -7 42 -4 59 7 38 8 44 6 80 -3 49
-17 28 -17 -25z"/>
<path d="M1850 354 c0 -10 26 -31 46 -38 10 -3 24 -16 29 -28 6 -14 17 -22 29
-20 12 2 16 -1 10 -9 -4 -8 -3 -10 4 -5 16 10 -37 76 -60 76 -9 0 -23 7 -32
15 -15 15 -26 19 -26 9z"/>
<path d="M776 331 c-4 -5 -1 -20 4 -33 10 -22 10 -22 5 5 -3 15 -1 27 5 27 5
0 10 -11 10 -25 0 -14 5 -25 10 -25 14 0 13 33 -2 48 -14 14 -25 15 -32 3z"/>
<path d="M910 280 c-5 -29 2 -55 17 -70 13 -13 15 -13 7 0 -4 8 -11 30 -15 50
-4 19 -8 28 -9 20z"/>
<path d="M1722 268 c-58 -13 -49 -19 13 -10 28 4 46 10 40 13 -5 3 -30 2 -53
-3z"/>
<path d="M834 208 c3 -9 10 -35 16 -57 10 -39 59 -91 85 -91 7 0 22 8 34 17
20 17 21 19 6 41 -9 12 -20 20 -24 18 -4 -3 -13 0 -21 5 -13 7 -13 10 -1 18 7
5 9 11 5 14 -11 6 -28 -12 -32 -34 -3 -19 18 -30 48 -24 25 5 27 -16 2 -31
-26 -16 -61 15 -77 68 -8 24 -14 36 -15 28 0 -8 -8 -1 -16 15 -8 17 -12 22
-10 13z"/>
<path d="M1861 106 c12 -13 67 -24 80 -15 10 6 7 9 -11 9 -14 0 -36 3 -50 7
-14 3 -22 3 -19 -1z"/>
</g>
</svg>
